# xmcd
#
# Track frame offsets:
#	150
#	10105
#	27230
#	41357
#	51985
#	66975
#	89420
#	101720
#	113962
#	127285
#	138050
#	150972
#	165575
#	184715
#	197362
#
# Disc length: 2809 seconds
#
# Revision: 0
# Processed by: cddbd v1.5.1PL0 Copyright (c) Steve Scherf et al.
# Submitted via: dBpowerAMP V4.0
#
DISCID=c10af70f
DTITLE=Dobrojean - 'Bout Time
DYEAR=1900
DGENRE=Blues
TTITLE0=Sting Jive
TTITLE1=Once Upon A Time
TTITLE2=Nobody Knows (why it just grows)
TTITLE3=Big and Open World
TTITLE4=Let It Go
TTITLE5=It Couldn't Be
TTITLE6=Oh My Oh My
TTITLE7=Ladybird Calling
TTITLE8=As Long As I Get Mine
TTITLE9=Sleep Around Hang Around
TTITLE10=Hear My Train Pounding
TTITLE11='bout Time I'd Let You Know
TTITLE12=All Pain and No Gain
TTITLE13=Better Than Before
TTITLE14=Terraplane Blues
EXTD=
EXTT0=
EXTT1=
EXTT2=
EXTT3=
EXTT4=
EXTT5=
EXTT6=
EXTT7=
EXTT8=
EXTT9=
EXTT10=
EXTT11=
EXTT12=
EXTT13=
EXTT14=
PLAYORDER=
